<svg width="40" height="41" viewBox="0 0 40 41" fill="none" xmlns="http://www.w3.org/2000/svg">
<path d="M3.19434 6.75H36.8055V16.1775C35.0253 16.8067 33.7499 18.5044 33.7499 20.5C33.7499 22.4956 35.0253 24.1934 36.8055 24.8225V34.25H3.19434V24.8225C4.97449 24.1934 6.24989 22.4956 6.24989 20.5C6.24989 18.5044 4.97449 16.8067 3.19434 16.1775V6.75Z" fill="#FFFACD"/>
<path d="M20.0004 14.3887L22.2283 18.208L26.0478 19.1628L23.5016 22.0274L24.1381 26.4833L20.0004 24.5736L15.8628 26.4833L16.4994 22.0274L13.9531 19.1628L17.7724 18.208L20.0004 14.3887Z" fill="white"/>
<path d="M20.0004 14.3887L22.2283 18.208L26.0478 19.1628L23.5016 22.0274L24.1381 26.4833L20.0004 24.5736L15.8628 26.4833L16.4994 22.0274L13.9531 19.1628L17.7724 18.208L20.0004 14.3887Z" stroke="#1D1D1B" stroke-width="3.33333"/>
<path d="M3.19434 6.75H36.8055V16.1775C35.0253 16.8067 33.7499 18.5044 33.7499 20.5C33.7499 22.4956 35.0253 24.1934 36.8055 24.8225V34.25H3.19434V24.8225C4.97449 24.1934 6.24989 22.4956 6.24989 20.5C6.24989 18.5044 4.97449 16.8067 3.19434 16.1775V6.75Z" stroke="#1D1D1B" stroke-width="3.33333"/>
</svg>
