<svg width="40" height="41" viewBox="0 0 40 41" fill="none" xmlns="http://www.w3.org/2000/svg">
<path d="M19.9992 4.31348L16.6306 7.682L12.0291 6.44903L10.7962 11.0505L5.98124 12.4068L7.21422 17.0083L3.8125 20.5004L7.18102 23.8688L5.98103 28.5941L10.5825 29.827L11.9057 34.5187L16.5072 33.2858L19.9992 36.687L23.3676 33.3186L28.2159 34.4854L29.4489 29.8839L34.0176 28.5936L32.7847 23.9921L36.1861 20.5004L32.8175 17.1318L34.0174 12.4073L29.4159 11.1743L28.0924 6.48231L23.4909 7.71527L19.9992 4.31348Z" fill="#FFFACD"/>
<path d="M19.9992 4.31348L16.6306 7.682L12.0291 6.44903L10.7962 11.0505L5.98124 12.4068L7.21422 17.0083L3.8125 20.5004L7.18102 23.8688L5.98103 28.5941L10.5825 29.827L11.9057 34.5187L16.5072 33.2858L19.9992 36.687L23.3676 33.3186L28.2159 34.4854L29.4489 29.8838L34.0176 28.5936L32.7847 23.9921L36.1861 20.5004L32.8175 17.1318L34.0174 12.4073L29.4159 11.1743L28.0924 6.48231L23.4909 7.71527L19.9992 4.31348Z" stroke="#1D1D1B" stroke-width="3.33333"/>
<path d="M13.127 27.4434L26.8769 13.6934" stroke="#1D1D1B" stroke-width="3.33333"/>
<path d="M14.2725 15.6028L15.0364 14.8389L15.8002 15.6028L15.0364 16.3666L14.2725 15.6028Z" stroke="#1D1D1B" stroke-width="3.33333"/>
<path d="M24.2031 25.5334L24.967 24.7695L25.7309 25.5334L24.967 26.2973L24.2031 25.5334Z" stroke="#1D1D1B" stroke-width="3.33333"/>
</svg>
