<svg width="40" height="40" viewBox="0 0 40 40" fill="none" xmlns="http://www.w3.org/2000/svg">
<path fill-rule="evenodd" clip-rule="evenodd" d="M30.6943 3.19446H3.19434V24.5833H17.252C18.2362 21.0589 21.4696 18.4722 25.3088 18.4722H25.4226C26.734 18.4722 28.0132 18.7761 29.1666 19.344C29.6556 19.1032 30.1673 18.9099 30.6943 18.7671V3.19446Z" fill="#FFFACD"/>
<path d="M16.9443 24.5833H3.19434V3.19446H30.6943V18.4722" stroke="#1D1D1B" stroke-width="3.33333"/>
<path d="M3.19434 6.25L16.9443 13.8889L30.6943 6.25" stroke="#1D1D1B" stroke-width="3.33333"/>
<path d="M28.2326 24.2539L29.1662 25.2268L30.0999 24.2537C30.8343 23.4883 31.8493 23.0557 32.9101 23.0557H33.024C35.1122 23.0557 36.8051 24.7486 36.805 26.8368C36.805 27.8396 36.4067 28.8012 35.6976 29.5102L29.1662 36.0418L22.6348 29.5104C21.9256 28.8012 21.5273 27.8396 21.5273 26.8368C21.5273 24.7484 23.2201 23.0557 25.3084 23.0557H25.4223C26.4831 23.0557 27.4982 23.4883 28.2326 24.2539Z" fill="white"/>
<path d="M28.2326 24.2539L29.1662 25.2268L30.0999 24.2537C30.8343 23.4883 31.8493 23.0557 32.9101 23.0557H33.024C35.1122 23.0557 36.8051 24.7486 36.805 26.8368C36.805 27.8396 36.4067 28.8012 35.6976 29.5102L29.1662 36.0418L22.6348 29.5104C21.9256 28.8012 21.5273 27.8396 21.5273 26.8368C21.5273 24.7484 23.2201 23.0557 25.3084 23.0557H25.4223C26.4831 23.0557 27.4982 23.4883 28.2326 24.2539Z" stroke="#1D1D1B" stroke-width="3.33333"/>
</svg>
