<svg width="40" height="40" viewBox="0 0 40 40" fill="none" xmlns="http://www.w3.org/2000/svg">
<path fill-rule="evenodd" clip-rule="evenodd" d="M19.5938 21.0899C18.3465 20.8883 16.9541 20.7639 15.4166 20.7639C7.26842 20.7639 3.19434 24.256 3.19434 24.256V30.6919H16.5523L17.6387 29.1361L16.1655 27.0281L19.5938 21.0899Z" fill="#FFFACD"/>
<path d="M31.6463 23.4544L30.7382 21.5135H27.3465L26.4387 23.4561L25.4269 24.0405L23.2906 23.8564L21.5947 26.7935L22.8237 28.5522V29.7186L21.5955 31.4776L23.2913 34.4147L25.4279 34.2297L26.439 34.8133L27.3465 36.7559H30.7382L31.6467 34.8147L32.6603 34.2296L34.7949 34.4147L36.4907 31.4776L35.2645 29.7211L35.2644 28.5488L36.4915 26.7935L34.7956 23.8564L32.6606 24.04L31.6463 23.4544Z" fill="white"/>
<path d="M31.6453 23.4544L30.7372 21.5135H27.3455L26.4377 23.4561L25.4259 24.0405L23.2896 23.8564L21.5938 26.7935L22.8227 28.5522V29.7186L21.5944 31.4776L23.2902 34.4147L25.4269 34.2297L26.438 34.8133L27.3455 36.7559H30.7372L31.6458 34.8147L32.6593 34.2296L34.7939 34.4147L36.4897 31.4776L35.2635 29.7211L35.2634 28.5488L36.4905 26.7935L34.7947 23.8564L32.6596 24.04L31.6453 23.4544Z" stroke="#1D1D1B" stroke-width="3.33333"/>
<path d="M29.0439 27.4976V30.5531" stroke="#1D1D1B" stroke-width="3.33333"/>
<path d="M9.30664 9.30404C9.30664 10.1064 9.46467 10.9008 9.7717 11.6421C10.0787 12.3833 10.5288 13.0568 11.0961 13.6242C11.6634 14.1915 12.3369 14.6415 13.0782 14.9486C13.8194 15.2556 14.6139 15.4136 15.4162 15.4136C16.2185 15.4136 17.013 15.2556 17.7543 14.9486C18.4955 14.6415 19.169 14.1915 19.7364 13.6242C20.3037 13.0568 20.7537 12.3833 21.0607 11.6421C21.3678 10.9008 21.5258 10.1064 21.5258 9.30404C21.5258 7.68368 20.8821 6.12968 19.7364 4.98391C18.5906 3.83814 17.0366 3.19446 15.4162 3.19446C13.7959 3.19446 12.2419 3.83814 11.0961 4.98391C9.95033 6.12968 9.30664 7.68368 9.30664 9.30404Z" fill="#FFFACD"/>
<path d="M16.1804 30.6919H3.19434V24.256C3.19434 24.256 7.26842 20.7639 15.4166 20.7639C16.8086 20.7639 18.0818 20.8658 19.236 21.0348" stroke="#1D1D1B" stroke-width="3.33333"/>
<path d="M9.30664 9.30404C9.30664 10.1064 9.46467 10.9008 9.7717 11.6421C10.0787 12.3833 10.5288 13.0568 11.0961 13.6242C11.6634 14.1915 12.3369 14.6415 13.0782 14.9486C13.8194 15.2556 14.6139 15.4136 15.4162 15.4136C16.2185 15.4136 17.013 15.2556 17.7543 14.9486C18.4955 14.6415 19.169 14.1915 19.7364 13.6242C20.3037 13.0568 20.7537 12.3833 21.0607 11.6421C21.3678 10.9008 21.5258 10.1064 21.5258 9.30404C21.5258 7.68368 20.8821 6.12968 19.7364 4.98391C18.5906 3.83814 17.0366 3.19446 15.4162 3.19446C13.7959 3.19446 12.2419 3.83814 11.0961 4.98391C9.95033 6.12968 9.30664 7.68368 9.30664 9.30404Z" stroke="#1D1D1B" stroke-width="3.33333"/>
</svg>
